# xmcd
#
# Track frame offsets: 
#        150
#        30436
#        42935
#
# Disc length: 874 seconds
#
# Revision: 0
# Processed by: cddbd v1.5.2PL0 Copyright (c) Steve Scherf et al.
# Submitted via: ExactAudioCopy v1.0b3
#
DISCID=19036803
DTITLE=The Earls Of Mars - The Skies Are Falling!
DYEAR=2012
DGENRE=Metal
TTITLE0=Cornelius Itchybah
TTITLE1=Poor Whores Petition
TTITLE2=The Mirrored Staircase
EXTD=
EXTT0=
EXTT1=
EXTT2=
PLAYORDER=
